<?xml version="1.0" standalone="no"?>
<!DOCTYPE svg PUBLIC "-//W3C//DTD SVG 20010904//EN"
 "http://www.w3.org/TR/2001/REC-SVG-20010904/DTD/svg10.dtd">
<svg version="1.0" xmlns="http://www.w3.org/2000/svg"
 width="430.000000pt" height="637.000000pt" viewBox="0 0 430.000000 637.000000"
 preserveAspectRatio="xMidYMid meet">

<g transform="translate(0.000000,637.000000) scale(0.100000,-0.100000)"
fill="#000000" stroke="none">
<path d="M0 6136 c0 -178 3 -235 13 -239 9 -4 9 -7 0 -18 -9 -9 -13 -48 -13
-121 0 -89 3 -108 15 -108 8 0 15 -9 15 -20 0 -13 7 -20 20 -20 13 0 20 -7 21
-20 2 -21 7 -69 10 -95 1 -8 8 -15 16 -15 15 0 18 -16 4 -24 -4 -3 -11 -20
-15 -37 -5 -28 -7 -29 -22 -15 -17 18 -24 19 -48 10 -15 -6 -16 -105 -16
-1069 0 -927 2 -1064 15 -1069 8 -3 15 0 15 7 0 7 9 20 20 30 11 9 20 26 20
37 0 12 4 18 10 15 5 -3 8 -19 6 -35 -2 -19 1 -27 7 -23 6 4 8 0 4 -10 -4 -12
-1 -17 9 -17 12 0 15 6 11 21 -6 24 1 49 14 49 4 0 6 -7 2 -16 -3 -9 -2 -15 3
-13 25 10 103 65 104 73 0 5 16 24 35 42 30 28 40 32 70 27 30 -5 34 -3 29 11
-7 19 7 21 24 4 16 -16 15 -28 -2 -28 -21 0 -8 -38 15 -45 25 -8 39 -36 46
-93 3 -26 12 -57 20 -69 8 -12 12 -27 9 -32 -4 -5 -2 -12 4 -16 5 -3 10 -17
10 -30 0 -13 7 -31 16 -39 8 -9 13 -20 9 -26 -3 -5 -1 -17 4 -27 6 -10 20 -38
31 -63 11 -25 29 -58 40 -75 11 -16 30 -48 42 -70 12 -22 28 -49 35 -60 7 -11
15 -27 18 -35 16 -38 51 -97 67 -114 10 -11 16 -27 13 -37 -3 -9 2 -22 11 -30
18 -15 74 -125 74 -146 0 -7 6 -13 14 -13 8 0 27 -25 43 -56 15 -31 38 -63 50
-71 12 -8 25 -28 28 -44 6 -24 13 -30 46 -35 48 -8 62 -24 57 -68 -2 -19 0
-32 4 -30 4 3 8 12 8 20 0 9 11 14 30 14 35 0 97 -34 80 -45 -6 -4 -8 -15 -5
-26 4 -11 2 -19 -4 -19 -6 0 -11 -4 -11 -10 0 -15 30 -12 31 3 0 6 7 -1 15
-18 11 -23 14 -25 10 -7 -3 15 0 22 7 19 7 -2 12 -12 12 -23 0 -16 6 -19 43
-16 40 2 44 0 53 -28 12 -34 29 -40 29 -10 0 11 7 20 15 20 8 0 15 -4 15 -9 0
-5 20 -9 45 -9 25 0 52 -6 60 -12 18 -15 49 5 38 24 -4 7 -1 6 9 -1 8 -7 18
-10 22 -6 4 4 4 -1 0 -12 -6 -16 -5 -18 7 -7 21 19 31 14 17 -9 -11 -17 -10
-22 6 -35 23 -17 36 -18 36 -4 0 24 50 59 124 86 64 24 90 40 142 91 35 34 64
67 64 72 0 6 11 18 25 27 14 9 25 21 25 26 0 5 13 23 30 41 16 18 30 35 30 39
0 8 16 29 60 77 14 15 32 36 41 47 8 10 71 71 138 134 129 120 205 197 226
227 32 47 75 134 75 152 0 12 4 21 9 21 9 0 26 67 22 84 -1 4 6 20 16 35 9 14
16 34 15 44 -2 9 2 17 7 17 6 0 11 7 11 16 0 8 -5 12 -10 9 -5 -3 -10 -1 -10
4 0 6 -5 11 -11 11 -6 0 -8 -9 -4 -22 3 -13 3 -18 -2 -12 -14 19 -75 11 -83
-11 -7 -18 -8 -17 -15 8 -7 28 -20 33 -45 17 -13 -8 -12 -11 5 -24 22 -16 14
-31 -20 -38 -12 -2 -19 -10 -17 -20 3 -22 -15 -33 -32 -19 -11 9 -16 4 -27
-21 -8 -18 -13 -37 -11 -41 1 -5 -2 -6 -8 -2 -5 3 -10 1 -10 -5 0 -6 -4 -9 -9
-5 -5 3 -12 1 -16 -5 -3 -5 2 -10 12 -11 16 0 16 -1 -2 -9 -11 -5 -14 -9 -7
-9 27 -2 -1 -51 -30 -51 -8 -1 -6 -6 6 -15 19 -14 11 -21 -17 -16 -5 1 -7 -4
-5 -10 2 -7 -7 -23 -20 -36 -13 -13 -21 -30 -18 -38 7 -20 -18 -19 -35 2 -11
13 -11 17 -1 21 10 3 10 7 1 18 -9 11 -8 21 1 44 7 17 10 34 6 37 -3 4 1 14
10 24 9 10 14 25 11 34 -4 8 -3 15 2 15 5 0 11 15 15 32 5 25 2 36 -11 45 -9
7 -14 16 -10 19 4 4 13 2 20 -5 17 -13 43 -6 51 14 3 8 -3 24 -14 37 l-18 23
-36 -38 c-20 -21 -36 -47 -36 -56 0 -10 -7 -35 -15 -56 -12 -27 -13 -40 -5
-50 8 -10 7 -15 -8 -19 -14 -5 -18 -13 -14 -31 2 -15 0 -25 -7 -25 -7 0 -11
-10 -9 -22 2 -16 -2 -22 -13 -20 -12 1 -15 -5 -11 -27 6 -40 -18 -91 -42 -91
-15 0 -17 -5 -12 -35 6 -32 5 -35 -28 -49 -24 -10 -34 -20 -32 -33 2 -10 -1
-24 -7 -30 -6 -9 -6 -13 3 -13 10 0 10 -3 0 -15 -12 -14 -16 -13 -36 6 -13 12
-27 19 -31 16 -3 -4 0 -7 7 -7 7 0 11 -3 7 -6 -3 -4 4 -15 16 -25 24 -20 24
-20 -59 -21 -28 -1 -57 3 -64 7 -9 5 -11 4 -6 -3 4 -7 3 -12 -2 -12 -18 0 -22
-43 -5 -55 11 -9 13 -14 5 -19 -7 -4 -12 -3 -12 2 0 18 -32 22 -71 11 -21 -7
-39 -16 -39 -21 0 -13 23 -9 44 7 24 18 36 19 36 2 0 -38 -62 -70 -78 -41 -14
24 -63 1 -59 -28 1 -18 -4 -24 -23 -26 -14 -2 -31 -11 -38 -20 -11 -14 -14
-15 -22 -3 -11 18 -100 23 -117 6 -6 -7 -9 -15 -6 -19 4 -3 1 -6 -5 -6 -7 0
-12 4 -12 9 0 12 -103 9 -111 -3 -4 -5 -12 -5 -18 -1 -9 5 -9 10 0 21 6 8 8
18 4 22 -4 4 -10 1 -12 -6 -3 -6 -9 -10 -14 -6 -5 3 -9 2 -8 -3 3 -20 -2 -31
-20 -36 -12 -3 -32 10 -61 39 -24 24 -52 44 -62 44 -10 0 -18 6 -19 13 0 6 -4
2 -9 -9 -6 -16 -15 -20 -34 -17 -30 6 -35 12 -38 46 -1 16 -10 28 -22 31 -16
4 -17 7 -6 20 15 19 0 22 -18 4 -9 -9 -12 -9 -12 2 0 12 -2 12 -9 2 -6 -10
-10 -10 -21 3 -7 8 -28 15 -46 15 -24 0 -34 5 -34 15 0 8 -5 15 -11 15 -5 0
-19 20 -30 45 -11 24 -23 47 -28 49 -5 3 -12 17 -15 32 -4 14 -18 38 -31 52
-14 15 -25 39 -25 54 0 15 -4 30 -10 33 -5 3 -10 16 -10 28 0 12 -7 35 -15 51
-9 16 -15 37 -14 45 5 50 -1 69 -20 64 -12 -3 -20 2 -23 14 -9 34 -12 38 -35
56 -13 10 -23 29 -23 43 0 13 -4 24 -10 24 -5 0 -10 7 -10 15 0 9 -7 18 -15
21 -8 3 -24 28 -36 55 -13 27 -27 49 -32 49 -6 0 -7 3 -4 6 4 4 0 19 -7 33 -8
14 -22 51 -31 81 -9 30 -28 74 -42 97 -13 23 -22 47 -18 53 4 6 0 22 -9 35 -9
13 -16 38 -16 54 0 16 -5 33 -10 36 -6 4 -8 11 -4 16 8 14 -6 70 -17 63 -5 -3
-9 3 -9 13 0 11 -6 25 -12 31 -10 10 -10 15 -1 20 12 8 11 43 -2 75 -4 10 -2
24 5 32 14 16 19 104 7 108 -14 4 -6 115 11 159 9 21 8 27 -5 32 -17 7 -11 19
12 22 8 1 15 -4 15 -12 0 -8 7 -14 15 -14 9 0 15 9 15 25 0 14 -4 25 -10 25
-5 0 -10 10 -10 21 0 17 3 19 14 10 10 -9 16 -9 21 -1 4 6 16 10 28 8 19 -3
22 2 22 32 0 21 5 34 11 33 7 -1 10 6 7 16 -3 10 0 22 7 26 8 5 8 10 0 20 -8
10 -8 15 0 20 6 4 14 4 17 1 3 -3 18 3 33 14 44 31 212 28 275 -4 18 -9 20
-14 9 -24 -8 -7 -15 -8 -19 -2 -3 6 -11 10 -16 10 -6 0 -8 -4 -4 -9 3 -5 -5
-17 -17 -25 -17 -12 -19 -16 -6 -16 9 0 18 5 20 11 6 17 92 2 120 -21 13 -11
18 -19 11 -20 -6 0 -18 7 -26 15 -8 8 -17 11 -20 8 -13 -12 -52 -8 -59 7 -6
13 -7 12 -7 -2 -1 -13 -8 -16 -35 -11 -18 3 -43 0 -54 -6 -16 -8 -24 -8 -34 3
-8 7 -28 12 -46 10 -41 -5 -113 -50 -119 -75 -3 -10 -12 -19 -19 -19 -8 0 -14
-4 -14 -9 0 -5 -3 -17 -6 -25 -5 -12 -2 -15 11 -10 16 7 16 5 1 -25 -21 -40
-13 -53 29 -47 19 3 37 1 40 -4 13 -21 34 -10 32 17 -1 15 3 28 8 29 26 2 65
17 65 24 0 4 11 5 25 2 35 -6 31 10 -5 26 -37 17 -37 25 -3 47 25 17 27 17 40
-1 7 -10 11 -24 8 -32 -6 -17 22 -27 39 -13 8 7 34 13 59 14 25 1 43 5 40 10
-7 12 21 7 47 -9 14 -8 17 -13 7 -10 -11 4 -16 2 -12 -5 4 -5 14 -9 23 -8 38
3 51 -2 54 -23 8 -55 54 -3 64 74 5 37 2 47 -20 71 -14 15 -31 25 -36 22 -6
-3 -10 1 -10 9 0 9 -12 23 -27 33 -38 24 -44 34 -38 61 3 12 1 22 -5 22 -5 0
-10 -7 -10 -15 0 -8 -4 -15 -10 -15 -5 0 -10 5 -10 10 0 6 -12 23 -26 39 -30
34 -147 69 -168 52 -12 -10 -107 -8 -228 5 l-58 6 0 53 c0 30 4 56 9 59 5 3 7
15 4 25 -3 11 2 41 10 68 9 26 18 68 21 93 8 59 28 115 49 138 9 10 17 26 17
35 0 9 9 21 20 27 12 6 20 21 20 36 0 16 8 28 23 35 13 6 29 26 36 45 7 19 26
44 42 56 16 12 29 27 29 34 0 6 17 15 37 19 40 7 112 41 128 59 14 16 83 39
94 31 5 -3 13 -1 16 5 4 6 28 10 53 10 67 -1 157 14 155 25 -1 6 10 11 23 12
13 1 35 3 49 4 14 1 25 8 25 15 0 8 6 11 17 7 25 -10 53 -36 53 -49 0 -6 9
-14 21 -17 12 -3 18 -10 14 -17 -8 -13 39 -60 59 -60 8 0 17 -11 20 -25 4 -14
11 -25 16 -25 12 0 12 -78 1 -137 -7 -35 -6 -43 6 -43 11 0 13 -5 7 -17 -4
-10 -8 -28 -8 -40 -1 -11 -4 -19 -8 -16 -5 2 -8 -5 -8 -16 0 -10 -3 -26 -6
-35 -3 -9 -2 -16 4 -16 15 0 95 182 96 217 0 18 5 34 12 37 7 3 10 16 7 33 -3
15 -1 24 4 18 4 -5 17 -11 28 -13 20 -4 20 -4 0 11 -11 9 -16 19 -12 23 4 5
12 2 17 -6 6 -8 10 -11 10 -7 0 14 40 -14 40 -28 0 -8 5 -15 10 -15 6 0 10 -4
10 -9 0 -13 45 -61 57 -61 5 0 7 -16 5 -35 -2 -19 -1 -42 2 -51 6 -16 8 -16
24 0 27 24 47 20 88 -19 20 -19 43 -35 50 -35 8 0 14 -5 14 -11 0 -6 13 -8 30
-5 17 2 28 1 25 -3 -2 -4 11 -13 30 -18 44 -14 59 1 49 51 -6 37 10 52 22 21
4 -8 12 -15 19 -15 14 0 95 -79 95 -92 0 -5 -7 -8 -15 -8 -18 0 -20 -16 -3
-26 6 -4 14 -2 16 4 2 7 8 9 13 6 6 -3 16 0 24 6 12 10 15 9 15 -5 0 -11 5
-15 15 -11 10 3 14 -1 13 -12 -3 -38 3 -61 19 -78 17 -16 18 -16 24 7 l6 24
13 -26 c8 -19 18 -25 31 -22 15 4 19 0 19 -21 0 -16 -6 -26 -15 -26 -9 0 -12
-6 -9 -15 4 -8 10 -12 15 -9 5 3 6 -2 3 -10 -4 -11 0 -16 10 -16 11 0 16 -9
16 -26 0 -14 4 -23 10 -19 6 3 10 1 10 -5 0 -6 11 -15 25 -20 18 -7 25 -17 25
-35 0 -18 5 -25 20 -25 16 0 20 -6 20 -27 0 -16 2 -39 4 -53 2 -14 5 -28 5
-33 1 -4 7 -6 13 -5 7 2 14 -7 16 -20 2 -12 7 -20 12 -17 4 3 10 -4 13 -15 3
-11 1 -18 -4 -15 -8 5 -6 -19 7 -82 2 -12 0 -24 -6 -28 -16 -10 0 -33 20 -28
19 5 36 -12 21 -22 -12 -7 6 -65 20 -65 5 0 7 -11 3 -24 -4 -16 -1 -25 10 -29
9 -4 16 -16 16 -27 0 -11 5 -20 10 -20 6 0 10 6 10 13 0 7 9 23 21 36 12 12
18 25 15 28 -3 3 8 21 24 40 17 18 30 40 30 47 0 13 53 68 129 134 30 28 33
34 32 83 -1 30 -1 99 0 154 5 197 -1 370 -13 391 -3 5 -6 65 -7 134 0 69 -1
134 -2 144 0 23 -34 101 -60 138 -11 14 -19 39 -19 55 0 19 -14 42 -43 74 -24
25 -49 61 -57 80 -8 19 -25 44 -38 56 -12 11 -18 23 -13 25 7 2 6 12 -2 27
-10 20 -28 29 -93 46 l-81 20 18 40 c23 53 24 49 -17 91 -35 34 -39 36 -95 31
-31 -2 -62 -1 -67 2 -16 10 -24 98 -12 121 6 12 12 68 13 126 1 57 4 104 7
104 3 0 6 15 5 33 l0 32 -1192 3 -1193 2 0 -234z m680 155 c0 -6 -4 -13 -10
-16 -5 -3 -10 1 -10 9 0 9 5 16 10 16 6 0 10 -4 10 -9z m-7 -68 c3 -16 4 -50
1 -78 -2 -27 -5 -71 -7 -98 -3 -26 -7 -50 -11 -54 -3 -3 -6 -18 -6 -33 0 -42
-18 -83 -46 -103 -29 -22 -47 -14 -38 16 4 12 8 42 9 67 5 86 16 185 24 205 5
11 13 34 18 50 5 17 15 29 21 28 7 -2 12 4 12 12 0 26 17 16 23 -12z m-553
-959 c0 -8 -4 -12 -10 -9 -5 3 -10 10 -10 16 0 5 5 9 10 9 6 0 10 -7 10 -16z
m2250 -363 c0 -3 -5 -13 -10 -21 -8 -13 -10 -12 -10 3 0 9 -4 17 -10 17 -5 0
-10 4 -10 9 0 5 9 7 20 4 11 -3 20 -8 20 -12z m-40 -67 c0 -8 -4 -12 -10 -9
-5 3 -10 10 -10 16 0 5 5 9 10 9 6 0 10 -7 10 -16z m130 -111 c0 -14 -3 -23
-7 -19 -10 10 -11 46 -1 46 4 0 8 -12 8 -27z m-1425 -421 c-3 -3 -11 0 -18 7
-9 10 -8 11 6 5 10 -3 15 -9 12 -12z m-161 -1 c3 -5 -1 -12 -10 -15 -20 -8
-29 -1 -19 13 8 13 22 14 29 2z m110 -7 c24 -23 19 -34 -14 -34 -25 0 -30 4
-30 25 0 29 21 33 44 9z m-574 -44 c0 -5 -2 -10 -4 -10 -3 0 -8 5 -11 10 -3 6
-1 10 4 10 6 0 11 -4 11 -10z m-265 -860 c3 -5 -1 -10 -10 -10 -9 0 -13 5 -10
10 3 6 8 10 10 10 2 0 7 -4 10 -10z m2501 -277 c-10 -10 -19 5 -10 18 6 11 8
11 12 0 2 -7 1 -15 -2 -18z"/>
<path d="M1536 4578 c-44 -51 -49 -90 -10 -85 14 2 30 10 35 18 7 11 9 11 9 1
0 -10 9 -12 31 -7 22 5 29 4 25 -4 -8 -12 20 -4 40 11 6 4 60 9 119 11 76 1
110 6 113 15 5 16 40 15 91 -3 36 -12 55 -14 91 -5 3 0 -10 7 -29 16 -32 13
-33 16 -19 31 19 18 68 11 68 -11 0 -9 7 -12 20 -9 31 8 20 37 -15 41 -17 2
-36 9 -43 15 -11 8 -16 7 -23 -5 -5 -10 -17 -14 -34 -10 -17 3 -25 0 -25 -9
-1 -9 -6 -7 -15 5 -14 18 -19 19 -51 7 -19 -7 -38 -10 -41 -7 -4 3 0 6 8 6 11
0 11 2 -1 10 -22 14 -40 12 -40 -5 0 -8 -9 -15 -21 -15 -11 0 -17 5 -14 10 8
13 -31 13 -56 -1 -14 -7 -24 -7 -33 0 -20 17 -108 22 -125 8 -12 -9 -13 -9 -7
1 17 29 -15 9 -48 -30z m51 -30 c-3 -8 -6 -5 -6 6 -1 11 2 17 5 13 3 -3 4 -12
1 -19z m170 16 c-3 -3 -12 -4 -19 -1 -8 3 -5 6 6 6 11 1 17 -2 13 -5z"/>
<path d="M1569 4417 c-16 -15 -23 -16 -34 -7 -8 6 -19 9 -26 5 -8 -6 -7 -10 2
-17 9 -6 5 -7 -12 -3 -23 6 -27 3 -33 -21 -9 -34 4 -47 38 -38 23 5 25 9 14
22 -12 14 -11 14 10 1 29 -18 28 -25 -9 -43 -28 -14 -32 -14 -51 4 -24 22 -52
13 -60 -18 -6 -21 27 -49 37 -32 3 6 17 10 31 10 13 0 24 4 24 9 0 4 11 6 25
3 14 -2 25 -8 25 -13 0 -5 7 -9 16 -9 11 0 14 6 9 21 -5 14 -3 20 7 18 48 -6
77 2 80 23 2 14 13 24 33 30 40 11 58 3 50 -22 -4 -13 -2 -20 7 -21 7 0 29 -2
48 -4 19 -2 56 -4 82 -4 27 0 52 -6 60 -14 10 -11 18 -12 35 -4 18 8 27 6 41
-6 10 -10 32 -17 48 -18 29 -1 29 -1 4 -9 l-25 -8 27 -1 c15 -1 30 4 33 10 12
18 -5 79 -21 79 -8 0 -17 6 -20 14 -12 31 -80 47 -206 49 -49 1 -88 6 -88 11
0 5 -6 4 -12 -1 -7 -6 -37 -13 -67 -17 -47 -6 -53 -5 -42 8 26 32 -46 44 -80
13z m52 -50 c-7 -7 -14 -8 -21 -1 -6 6 -2 10 12 11 16 2 18 -1 9 -10z m210
-10 c-13 -13 -26 -3 -16 12 3 6 11 8 17 5 6 -4 6 -10 -1 -17z"/>
<path d="M1685 4428 c3 -7 18 -13 34 -14 21 -1 28 3 24 12 -3 8 -18 14 -34 14
-19 0 -27 -4 -24 -12z"/>
<path d="M1013 4129 c-2 -22 12 -25 20 -5 3 8 0 16 -7 19 -6 3 -13 -4 -13 -14z"/>
<path d="M2790 4026 c0 -8 7 -17 16 -20 30 -11 37 -6 19 14 -21 23 -35 26 -35
6z"/>
<path d="M386 3998 c3 -5 10 -6 15 -3 13 9 11 12 -6 12 -8 0 -12 -4 -9 -9z"/>
<path d="M872 3671 c-13 -36 -9 -52 9 -34 6 6 9 23 7 39 l-3 29 -13 -34z"/>
<path d="M890 3610 c0 -5 5 -10 10 -10 6 0 19 -9 30 -20 12 -12 25 -18 31 -14
18 11 139 -81 139 -106 0 -4 -48 -7 -107 -5 -92 2 -112 0 -146 -18 -21 -11
-42 -27 -45 -36 -10 -27 -46 -51 -69 -47 -13 2 -23 -1 -23 -6 0 -5 -4 -7 -10
-3 -5 3 -7 12 -3 20 3 8 0 15 -5 15 -32 0 -34 -125 -3 -169 21 -30 25 -31 84
-27 34 2 70 7 79 11 11 4 21 -1 32 -17 22 -34 47 -108 36 -108 -5 0 -7 -7 -3
-16 3 -8 12 -13 20 -10 10 4 13 1 8 -13 -3 -11 -1 -22 5 -26 6 -3 8 -10 5 -15
-9 -14 23 -70 39 -70 8 0 24 -11 37 -25 28 -29 49 -32 49 -7 0 9 7 29 14 45
13 23 13 27 0 27 -8 0 -14 -5 -14 -11 0 -5 -4 -7 -10 -4 -6 4 -2 15 10 27 12
13 16 25 11 32 -5 6 -11 22 -13 36 -2 20 -10 26 -34 28 -27 3 -32 8 -42 48
-12 44 -8 88 10 111 7 9 14 9 28 0 11 -6 22 -9 25 -6 8 9 -6 40 -15 34 -5 -3
-12 -1 -15 5 -5 8 -11 8 -20 0 -9 -8 -14 -6 -19 5 -3 8 -12 15 -20 15 -8 0
-17 8 -21 18 -7 24 16 70 33 64 6 -2 12 1 12 6 0 6 14 10 30 10 65 -2 110 48
88 97 -17 38 1 52 43 31 54 -27 89 -17 74 22 -6 16 -7 16 -20 -1 -10 -14 -17
-16 -32 -8 -10 5 -30 12 -45 16 -16 3 -28 12 -28 20 0 8 -5 15 -10 15 -6 0
-16 11 -22 25 -11 25 -39 29 -81 10 -10 -4 -35 -3 -56 4 -47 14 -51 14 -51 1z
m50 -310 c0 -5 -4 -10 -10 -10 -5 0 -10 5 -10 10 0 6 5 10 10 10 6 0 10 -4 10
-10z m-135 -60 c3 -5 1 -10 -4 -10 -6 0 -11 5 -11 10 0 6 2 10 4 10 3 0 8 -4
11 -10z"/>
<path d="M2725 3560 c-7 -12 2 -30 16 -30 12 0 12 27 0 35 -5 3 -12 1 -16 -5z"/>
<path d="M1305 3530 c-3 -5 -1 -10 4 -10 6 0 11 5 11 10 0 6 -2 10 -4 10 -3 0
-8 -4 -11 -10z"/>
<path d="M2033 3518 c2 -7 10 -13 17 -13 7 0 15 6 18 13 2 7 -5 12 -18 12 -13
0 -20 -5 -17 -12z"/>
<path d="M2727 3478 c3 -18 8 -35 10 -37 7 -9 21 14 25 39 2 20 -2 26 -19 28
-21 3 -22 0 -16 -30z"/>
<path d="M1750 3460 c0 -6 -11 -16 -25 -22 -29 -13 -33 -34 -7 -40 25 -7 37
-7 35 1 0 3 5 12 13 19 12 11 14 7 14 -23 0 -31 3 -35 25 -35 15 0 24 -5 23
-12 -2 -7 7 -13 19 -13 13 0 23 -4 23 -8 0 -4 0 -11 0 -15 0 -13 -63 -33 -70
-22 -6 10 -156 7 -167 -4 -3 -3 7 -6 23 -7 25 0 26 -2 9 -9 -11 -5 -14 -9 -7
-9 7 -1 20 -7 28 -15 7 -8 22 -12 33 -9 10 3 28 0 39 -6 15 -8 23 -8 28 0 10
17 24 -10 24 -47 0 -33 -28 -67 -52 -63 -26 5 -88 -29 -88 -49 0 -20 -18 -32
-47 -32 -9 0 -22 -8 -29 -17 -13 -17 -14 -17 -8 2 4 15 3 17 -4 6 -5 -7 -20
-15 -33 -16 -37 -4 -39 -4 -39 -15 0 -5 11 -10 25 -10 14 0 25 4 25 8 0 4 16
8 35 9 28 1 36 -3 34 -15 -3 -34 1 -44 16 -38 10 3 15 -1 15 -13 0 -10 7 -18
15 -18 8 0 15 7 15 14 0 8 -4 12 -8 9 -4 -2 -9 6 -10 19 -1 13 3 27 9 31 7 4
9 -1 4 -15 -7 -25 10 -29 23 -5 8 14 10 14 25 -1 15 -15 18 -15 42 1 18 12 24
22 20 35 -4 13 -1 19 9 19 19 0 21 16 4 23 -8 3 -6 6 5 6 10 1 17 9 17 21 0
11 3 19 8 19 22 -4 32 3 32 21 0 10 15 34 33 53 19 18 39 42 45 53 6 10 12 13
12 6 0 -10 6 -9 29 2 21 11 31 12 40 3 8 -8 11 -8 11 0 0 6 -6 14 -12 17 -9 3
-7 9 7 21 17 14 18 17 5 25 -13 8 -12 10 3 10 10 0 27 -5 38 -10 16 -9 19 -7
19 10 0 11 -6 19 -12 18 -7 -2 -13 4 -13 12 0 9 7 14 18 12 14 -2 18 2 15 15
-4 18 -40 20 -46 2 -6 -15 -32 -10 -32 6 0 14 -17 20 -48 16 -7 -1 -15 5 -18
13 -5 14 -8 14 -21 1 -8 -8 -19 -15 -24 -15 -13 0 -11 18 4 23 6 3 -5 6 -25 6
-21 1 -38 6 -38 12 0 6 -7 9 -15 5 -21 -8 -45 3 -45 20 0 8 -10 14 -25 14 -14
0 -25 -5 -25 -10z m248 -155 c-3 -3 -9 2 -12 12 -6 14 -5 15 5 6 7 -7 10 -15
7 -18z m-58 7 c0 -5 -6 -9 -12 -9 -7 0 -21 -4 -30 -8 -11 -4 -18 -3 -18 3 0
10 19 18 48 21 6 0 12 -3 12 -7z m44 -17 c4 -11 -1 -15 -19 -15 -18 0 -23 4
-19 15 4 8 12 15 19 15 7 0 15 -7 19 -15z"/>
<path d="M2095 3460 c3 -5 8 -10 11 -10 2 0 4 5 4 10 0 6 -5 10 -11 10 -5 0
-7 -4 -4 -10z"/>
<path d="M1600 3430 c0 -5 5 -10 10 -10 6 0 10 5 10 10 0 6 -4 10 -10 10 -5 0
-10 -4 -10 -10z"/>
<path d="M2140 3332 c0 -11 -7 -22 -15 -26 -8 -3 -15 -13 -15 -23 0 -14 2 -15
9 -4 5 8 17 12 27 9 15 -4 19 1 19 25 0 17 -6 32 -12 35 -8 2 -13 -5 -13 -16z"/>
<path d="M60 3270 c0 -5 5 -10 10 -10 6 0 10 5 10 10 0 6 -4 10 -10 10 -5 0
-10 -4 -10 -10z"/>
<path d="M1608 3263 c7 -3 16 -2 19 1 4 3 -2 6 -13 5 -11 0 -14 -3 -6 -6z"/>
<path d="M2141 3264 c-1 -7 -10 -14 -21 -17 -25 -7 -25 -19 1 -48 l21 -24 -6
24 c-3 14 0 31 5 38 6 7 9 18 6 25 -3 8 -6 9 -6 2z"/>
<path d="M30 3239 c0 -6 -7 -9 -15 -5 -10 4 -15 -1 -15 -14 0 -28 25 -25 38 5
7 15 8 25 2 25 -6 0 -10 -5 -10 -11z"/>
<path d="M1090 3240 c0 -5 5 -10 11 -10 5 0 7 5 4 10 -3 6 -8 10 -11 10 -2 0
-4 -4 -4 -10z"/>
<path d="M1140 3230 c0 -5 7 -7 15 -4 8 4 15 8 15 10 0 2 -7 4 -15 4 -8 0 -15
-4 -15 -10z"/>
<path d="M2648 3213 c-23 -6 -23 -39 -1 -47 18 -7 33 9 33 37 0 17 -2 18 -32
10z"/>
<path d="M2332 3199 c2 -6 8 -10 13 -10 5 0 11 4 13 10 2 6 -4 11 -13 11 -9 0
-15 -5 -13 -11z"/>
<path d="M2510 3181 c0 -6 4 -13 10 -16 6 -3 7 1 4 9 -7 18 -14 21 -14 7z"/>
<path d="M2365 3160 c-3 -5 1 -10 9 -10 9 0 16 5 16 10 0 6 -4 10 -9 10 -6 0
-13 -4 -16 -10z"/>
<path d="M2903 3139 c10 -26 9 -32 -6 -40 -9 -6 -17 -21 -17 -34 0 -13 -7 -30
-15 -39 -8 -8 -15 -22 -15 -30 0 -9 -8 -24 -18 -34 -10 -10 -26 -45 -37 -77
-10 -33 -30 -80 -45 -105 -15 -25 -34 -67 -44 -95 -20 -56 -27 -74 -51 -127
-9 -20 -18 -42 -19 -50 -1 -7 -10 -29 -19 -48 -9 -19 -30 -75 -48 -125 -18
-49 -49 -124 -69 -165 -20 -41 -42 -95 -49 -120 -7 -25 -25 -72 -40 -105 -65
-142 -96 -205 -103 -205 -5 0 -8 -7 -8 -15 0 -9 -11 -33 -25 -55 -14 -22 -25
-43 -25 -47 0 -9 -108 -234 -146 -303 -7 -14 -23 -45 -34 -70 -11 -25 -25 -52
-30 -60 -9 -16 -75 -155 -107 -230 -11 -25 -23 -58 -27 -73 -4 -16 -18 -46
-31 -68 -14 -21 -30 -61 -36 -89 -6 -27 -15 -52 -20 -56 -5 -3 -9 -18 -9 -34
0 -16 -4 -32 -10 -35 -5 -3 -10 -17 -10 -31 0 -13 -4 -32 -9 -42 -24 -47 -41
-95 -41 -115 -1 -22 -29 -112 -43 -134 -4 -7 -5 -23 -1 -36 3 -14 1 -28 -5
-31 -6 -4 -11 -17 -11 -28 0 -33 -22 -98 -31 -92 -5 3 -9 -10 -9 -30 0 -19 -3
-41 -6 -50 -6 -15 116 -16 1330 -16 l1336 0 0 1558 0 1557 -31 14 c-21 9 -51
11 -102 7 -40 -4 -85 -7 -102 -8 -16 0 -33 -6 -37 -12 -5 -8 -13 -8 -28 2 -11
7 -20 8 -20 3 0 -5 -16 -5 -39 1 -31 8 -46 6 -75 -7 -32 -16 -37 -16 -51 -1
-11 10 -25 14 -41 10 -14 -4 -24 -2 -24 5 0 12 -42 15 -54 4 -3 -4 -27 -8 -52
-9 -26 -1 -50 -7 -54 -14 -8 -13 -20 -12 -140 10 -73 13 -99 10 -167 -20 -27
-12 -59 -26 -73 -32 -14 -6 -33 -14 -42 -19 -10 -5 -27 -9 -38 -9 -36 0 -112
43 -129 72 -9 16 -26 31 -38 34 -13 4 -23 10 -23 15 0 5 -11 9 -24 9 -23 0
-24 -2 -13 -31z"/>
<path d="M2490 3131 c0 -11 5 -23 10 -26 6 -4 10 5 10 19 0 14 -4 26 -10 26
-5 0 -10 -9 -10 -19z"/>
<path d="M1561 3102 c-15 -28 -14 -32 8 -32 27 0 36 19 18 37 -13 14 -16 13
-26 -5z"/>
<path d="M1436 3051 c-4 -5 3 -7 14 -4 23 6 26 13 6 13 -8 0 -17 -4 -20 -9z"/>
<path d="M1228 2963 c6 -2 18 -2 25 0 6 3 1 5 -13 5 -14 0 -19 -2 -12 -5z"/>
<path d="M1590 2940 c0 -5 7 -10 15 -10 8 0 15 5 15 10 0 6 -7 10 -15 10 -8 0
-15 -4 -15 -10z"/>
<path d="M1615 2911 c-3 -5 -1 -12 5 -16 5 -3 10 1 10 9 0 18 -6 21 -15 7z"/>
<path d="M2311 2814 c0 -11 3 -14 6 -6 3 7 2 16 -1 19 -3 4 -6 -2 -5 -13z"/>
<path d="M1151 2414 c0 -11 3 -14 6 -6 3 7 2 16 -1 19 -3 4 -6 -2 -5 -13z"/>
<path d="M1341 2354 c0 -11 3 -14 6 -6 3 7 2 16 -1 19 -3 4 -6 -2 -5 -13z"/>
<path d="M645 2156 c-11 -6 -42 -24 -68 -39 -26 -16 -73 -37 -104 -48 -222
-76 -387 -274 -423 -506 -6 -35 -15 -93 -20 -130 -8 -49 -7 -100 1 -178 13
-124 28 -248 34 -285 3 -14 7 -51 10 -83 4 -32 15 -78 26 -103 10 -25 22 -76
25 -112 3 -37 10 -94 15 -127 5 -33 9 -77 9 -97 0 -20 5 -38 11 -40 6 -2 11
-17 11 -33 0 -17 11 -52 24 -79 37 -74 46 -128 34 -197 -10 -53 -9 -60 10 -79
19 -19 32 -20 319 -20 l299 0 -2 80 c-1 44 2 80 5 80 4 0 8 27 8 60 0 79 10
129 31 160 9 14 17 42 18 63 0 20 1 39 2 42 8 19 3 34 -19 59 -17 19 -22 30
-14 33 13 5 12 29 -7 228 -6 55 -12 177 -14 270 -3 160 -5 173 -29 220 -14 28
-31 71 -38 97 -7 29 -18 49 -29 53 -9 3 -23 18 -31 33 -7 15 -44 70 -81 122
-90 129 -95 142 -63 184 14 18 25 38 25 44 0 7 4 12 8 12 5 0 14 11 22 24 12
23 9 28 -33 77 -29 33 -43 58 -39 68 3 9 25 44 50 78 46 66 51 86 17 69z"/>
<path d="M1069 2093 c-3 -70 6 -169 20 -206 7 -18 7 -27 -2 -30 -7 -2 -4 -13
10 -30 20 -25 20 -31 8 -75 -7 -26 -22 -65 -33 -87 -37 -75 -48 -197 -21 -231
5 -6 33 -14 62 -17 28 -3 66 -8 83 -12 23 -4 33 -2 37 10 9 23 30 18 24 -5 -5
-19 -4 -20 24 -3 17 10 30 28 34 45 3 15 8 42 11 59 5 28 4 30 -14 25 -24 -8
-39 9 -17 18 19 7 20 36 1 36 -8 0 -17 13 -21 29 -3 16 -12 35 -20 41 -8 6
-11 18 -8 26 3 8 -1 14 -10 14 -16 0 -27 20 -27 50 0 9 -7 23 -15 30 -8 7 -15
20 -15 30 0 10 -10 24 -21 32 -15 10 -23 26 -24 53 -2 22 -7 41 -13 43 -6 2
-8 10 -5 18 3 8 0 21 -7 29 -7 9 -10 27 -7 45 4 16 2 32 -4 36 -6 3 -9 15 -6
25 3 12 0 19 -9 19 -8 0 -14 -8 -15 -17z"/>
<path d="M1630 1881 c0 -5 7 -12 16 -15 13 -5 14 -9 4 -21 -7 -9 -13 -30 -14
-48 -1 -27 -5 -32 -28 -35 -16 -2 -28 -9 -28 -17 0 -9 6 -12 15 -9 9 4 15 0
15 -7 1 -9 4 -8 11 4 6 10 22 17 39 17 33 0 35 8 24 94 -6 40 -10 46 -30 46
-13 0 -24 -4 -24 -9z"/>
<path d="M1663 1723 c9 -9 19 -14 23 -11 10 10 -6 28 -24 28 -15 0 -15 -1 1
-17z"/>
<path d="M1341 1433 c1 -16 -1 -52 -5 -81 -6 -47 -4 -54 12 -59 27 -7 55 -56
40 -71 -9 -9 -9 -15 0 -24 9 -9 13 -7 18 5 3 9 12 17 20 17 23 0 16 -20 -11
-32 -21 -9 -25 -17 -22 -46 2 -19 11 -40 20 -47 22 -16 22 -26 0 -18 -17 6
-17 5 -3 -13 9 -10 15 -34 14 -53 -2 -25 5 -44 23 -65 l26 -31 -6 35 c-5 24
-4 30 2 20 11 -16 12 -15 30 53 7 26 6 35 -1 30 -8 -4 -9 0 -4 13 18 44 18 51
-6 58 -14 5 -18 9 -10 13 17 7 16 47 -1 40 -22 -8 -43 9 -30 25 9 10 6 19 -13
37 -13 13 -21 27 -18 32 3 5 -2 9 -10 9 -9 0 -16 7 -16 15 0 8 5 15 11 15 18
0 5 43 -15 46 -31 4 -42 22 -28 44 17 27 15 60 -3 60 -10 0 -15 -9 -14 -27z
m49 -113 c0 -5 -6 -10 -14 -10 -8 0 -18 5 -21 10 -3 6 3 10 14 10 12 0 21 -4
21 -10z"/>
<path d="M1372 1405 c-10 -21 -9 -25 3 -25 9 0 15 10 15 25 0 14 -2 25 -3 25
-2 0 -9 -11 -15 -25z"/>
<path d="M1303 1413 c-7 -2 -13 -9 -13 -14 0 -5 6 -8 13 -6 6 1 11 -4 10 -10
-2 -7 1 -13 6 -13 5 0 9 11 9 25 0 25 -3 27 -25 18z"/>
<path d="M1510 1241 c0 -5 7 -14 15 -21 13 -10 15 -9 15 9 0 12 -6 21 -15 21
-8 0 -15 -4 -15 -9z"/>
</g>
</svg>
